<svg width="59" height="59" viewBox="0 0 59 59" fill="none" xmlns="http://www.w3.org/2000/svg">
<path d="M39.0356 23.1254C35.5241 28.2498 1.86818 30.4375 0.689846 1.0703C0.672163 0.629572 1.25581 0.43302 1.50297 0.799103C4.16042 4.73531 10.0791 11.2815 20.5503 9.61239C20.8839 9.55921 21.0723 9.12517 20.954 8.81016C20.3216 7.1263 19.9153 3.11648 22.3987 0.616693C22.6437 0.370114 23.0561 0.541022 23.13 0.87993C23.601 3.04137 25.6345 7.50209 33.2671 8.08737C36.0115 8.29782 39.2608 9.07979 42.7138 11.2881C42.8605 11.382 43.0695 11.2203 43.0327 11.0506C42.551 8.83052 44.2536 5.759 46.1355 4.94196C46.3887 4.83204 46.6429 5.04113 46.6583 5.31565C46.8757 9.19357 49.4231 12.2733 52.1433 15.5618C56.9193 21.3357 62.2279 27.7535 56.3924 40.2658C56.1095 40.8723 55.3431 41.0912 54.7594 40.7604C47.1909 36.4714 41.2942 38.5577 38.6866 39.9828C36.4107 41.2266 33.0684 45.5462 34.1281 50.6858C34.4023 52.0159 33.9471 53.4757 32.742 54.1118L25.3835 57.9961C23.997 58.7279 22.2551 58.1582 21.8179 56.6579C19.8099 49.7656 22.1836 42.5071 27.0663 37.5567C32.9879 31.5529 44.3962 29.3127 51.4496 33.171C51.744 33.332 52.1154 33.129 52.113 32.7947C52.0476 23.7217 44.4383 21.4239 40.658 20.2823C40.0675 20.104 39.5704 19.9539 39.2101 19.8106C38.2496 19.4286 37.261 19.0264 36.5236 18.1648C36.3222 17.9295 35.9763 17.949 35.9999 18.2572C36.0972 19.5326 37.8464 21.7231 38.9159 22.596C39.0804 22.7302 39.1555 22.9505 39.0356 23.1254Z" fill="url(#paint0_linear_594_3694)"/>
<path d="M48.2811 27.3886C48.9517 27.9423 49.6721 28.8149 49.8324 29.9367C49.8577 30.1141 49.6455 30.2392 49.4821 30.1639C48.9465 29.9167 48.0083 29.5772 47.0575 29.2982C46.2871 29.072 46.0135 27.879 46.6666 27.4136C47.1581 27.0633 47.8159 27.0044 48.2811 27.3886Z" fill="url(#paint1_linear_594_3694)"/>
<defs>
<linearGradient id="paint0_linear_594_3694" x1="40.618" y1="-25.6967" x2="121.864" y2="68.617" gradientUnits="userSpaceOnUse">
<stop stop-color="#EDA65B"/>
<stop offset="1" stop-color="#FA5A42"/>
</linearGradient>
<linearGradient id="paint1_linear_594_3694" x1="40.618" y1="-25.6967" x2="121.864" y2="68.617" gradientUnits="userSpaceOnUse">
<stop stop-color="#EDA65B"/>
<stop offset="1" stop-color="#FA5A42"/>
</linearGradient>
</defs>
</svg>
