<svg width="103" height="19" viewBox="0 0 103 19" fill="none" xmlns="http://www.w3.org/2000/svg">
<path d="M0.331738 18V0.374999H2.30674L13.0317 14.525H12.4067V0.374999H14.8067V18H12.8817L2.15674 3.85H2.73174V18H0.331738ZM23.9358 18.225C22.7025 18.225 21.6358 17.9667 20.7358 17.45C19.8525 16.9333 19.1608 16.2 18.6608 15.25C18.1608 14.3 17.9108 13.1833 17.9108 11.9C17.9108 10.6 18.1608 9.48333 18.6608 8.55C19.1608 7.6 19.8525 6.86667 20.7358 6.35C21.6358 5.83333 22.7025 5.575 23.9358 5.575C25.1525 5.575 26.2025 5.83333 27.0858 6.35C27.9858 6.86667 28.6858 7.6 29.1858 8.55C29.6858 9.5 29.9358 10.6167 29.9358 11.9C29.9358 13.1833 29.6858 14.3 29.1858 15.25C28.6858 16.2 27.9858 16.9333 27.0858 17.45C26.2025 17.9667 25.1525 18.225 23.9358 18.225ZM23.9108 16.275C24.9608 16.275 25.8025 15.9 26.4358 15.15C27.0692 14.4 27.3858 13.3167 27.3858 11.9C27.3858 10.4667 27.0692 9.38333 26.4358 8.65C25.8025 7.91667 24.9608 7.55 23.9108 7.55C22.8775 7.55 22.0442 7.91667 21.4108 8.65C20.7775 9.38333 20.4608 10.4667 20.4608 11.9C20.4608 13.3167 20.7775 14.4 21.4108 15.15C22.0442 15.9 22.8775 16.275 23.9108 16.275ZM36.1269 18L30.8769 5.8H33.6019L37.6769 15.925H36.9769L41.1519 5.8H43.7269L38.4019 18H36.1269ZM51.0454 18.225C49.7121 18.225 48.5621 17.975 47.5954 17.475C46.6454 16.9583 45.9037 16.2333 45.3704 15.3C44.8537 14.35 44.5954 13.225 44.5954 11.925C44.5954 10.6583 44.8537 9.55 45.3704 8.6C45.8871 7.65 46.5954 6.90833 47.4954 6.375C48.3954 5.84167 49.4204 5.575 50.5704 5.575C51.7037 5.575 52.6704 5.825 53.4704 6.325C54.2871 6.80833 54.9121 7.5 55.3454 8.4C55.7787 9.3 55.9954 10.375 55.9954 11.625V12.475H46.5954V10.925H54.2954L53.8704 11.275C53.8704 10.025 53.5954 9.05833 53.0454 8.375C52.4954 7.69167 51.7037 7.35 50.6704 7.35C49.8871 7.35 49.2204 7.53333 48.6704 7.9C48.1371 8.26667 47.7287 8.775 47.4454 9.425C47.1621 10.075 47.0204 10.8333 47.0204 11.7V11.85C47.0204 12.8167 47.1704 13.6333 47.4704 14.3C47.7871 14.95 48.2454 15.4417 48.8454 15.775C49.4454 16.1083 50.1871 16.275 51.0704 16.275C51.7704 16.275 52.4537 16.1667 53.1204 15.95C53.8037 15.7167 54.4454 15.3583 55.0454 14.875L55.7954 16.625C55.2454 17.125 54.5371 17.5167 53.6704 17.8C52.8037 18.0833 51.9287 18.225 51.0454 18.225ZM58.7481 18V5.8H61.1981V8.4H60.9231C61.2898 7.46667 61.8648 6.76667 62.6481 6.3C63.4315 5.81667 64.3315 5.575 65.3481 5.575C66.3148 5.575 67.1148 5.75833 67.7481 6.125C68.3981 6.475 68.8815 7.01667 69.1981 7.75C69.5148 8.46667 69.6731 9.375 69.6731 10.475V18H67.1481V10.625C67.1481 9.925 67.0565 9.35833 66.8731 8.925C66.6898 8.475 66.4148 8.14167 66.0481 7.925C65.6815 7.70833 65.2065 7.6 64.6231 7.6C63.9565 7.6 63.3648 7.74167 62.8481 8.025C62.3481 8.30833 61.9565 8.71667 61.6731 9.25C61.4065 9.78333 61.2731 10.4 61.2731 11.1V18H58.7481ZM78.3524 18.225C76.8358 18.225 75.6941 17.8333 74.9274 17.05C74.1774 16.2667 73.8024 15.1333 73.8024 13.65V7.75H71.4274V5.8H73.8024V2.125H76.3274V5.8H80.1024V7.75H76.3274V13.45C76.3274 14.3333 76.5108 15 76.8774 15.45C77.2608 15.9 77.8774 16.125 78.7274 16.125C78.9774 16.125 79.2274 16.0917 79.4774 16.025C79.7441 15.9583 80.0024 15.8917 80.2524 15.825L80.6524 17.725C80.4024 17.875 80.0524 17.9917 79.6024 18.075C79.1691 18.175 78.7524 18.225 78.3524 18.225ZM87.8862 18.225C86.5529 18.225 85.4029 17.975 84.4362 17.475C83.4862 16.9583 82.7446 16.2333 82.2112 15.3C81.6946 14.35 81.4362 13.225 81.4362 11.925C81.4362 10.6583 81.6946 9.55 82.2112 8.6C82.7279 7.65 83.4362 6.90833 84.3362 6.375C85.2362 5.84167 86.2612 5.575 87.4112 5.575C88.5446 5.575 89.5112 5.825 90.3112 6.325C91.1279 6.80833 91.7529 7.5 92.1862 8.4C92.6196 9.3 92.8362 10.375 92.8362 11.625V12.475H83.4362V10.925H91.1362L90.7112 11.275C90.7112 10.025 90.4362 9.05833 89.8862 8.375C89.3362 7.69167 88.5446 7.35 87.5112 7.35C86.7279 7.35 86.0612 7.53333 85.5112 7.9C84.9779 8.26667 84.5696 8.775 84.2862 9.425C84.0029 10.075 83.8612 10.8333 83.8612 11.7V11.85C83.8612 12.8167 84.0112 13.6333 84.3112 14.3C84.6279 14.95 85.0862 15.4417 85.6862 15.775C86.2862 16.1083 87.0279 16.275 87.9112 16.275C88.6112 16.275 89.2946 16.1667 89.9612 15.95C90.6446 15.7167 91.2862 15.3583 91.8862 14.875L92.6362 16.625C92.0862 17.125 91.3779 17.5167 90.5112 17.8C89.6446 18.0833 88.7696 18.225 87.8862 18.225ZM95.589 18V5.8H98.039V8.725H97.789C98.0556 7.725 98.5306 6.96667 99.214 6.45C99.914 5.93333 100.839 5.63333 101.989 5.55L102.814 5.5L102.989 7.65L101.464 7.8C100.381 7.9 99.5556 8.24167 98.989 8.825C98.4223 9.40833 98.139 10.2083 98.139 11.225V18H95.589Z" fill="#31374A"/>
</svg>
